HIERARCHY
ROOT Hips
{
  OFFSET 20.8908 103.298 6.67667
  CHANNELS 6 Xposition Yposition Zposition Zrotation Xrotation Yrotation
  JOINT RightUpLeg
  {
    OFFSET -8.9458 -8.66707 0.101652
    CHANNELS 3 Zrotation Xrotation Yrotation
    JOINT RightLeg
    {
      OFFSET 0 -44.4227 1.3727
      CHANNELS 3 Zrotation Xrotation Yrotation
      JOINT RightFoot
      {
        OFFSET 0.253549 -42.0924 -1.46059
        CHANNELS 3 Zrotation Xrotation Yrotation
        JOINT RightToes
        {
          OFFSET 0.04 -4.41509 8.4991
          CHANNELS 3 Zrotation Xrotation Yrotation
          End Site
          {
            OFFSET -0.08 -0.137448 9.77979
          }
        }
      }
    }
  }
  JOINT Spine
  {
    OFFSET 0 11.8905 0
    CHANNELS 3 Zrotation Xrotation Yrotation
    JOINT Spine1
    {
      OFFSET 0 25.6574 0.127663
      CHANNELS 3 Zrotation Xrotation Yrotation
      JOINT HEad
      {
        OFFSET 0 8.73416 0.011341
        CHANNELS 3 Zrotation Xrotation Yrotation
        End Site
        {
          OFFSET -0.29 12.7742 2.51395
        }
      }
      JOINT LeftShoulder1
      {
        OFFSET 8.99 -0.362252 -0.22
        CHANNELS 3 Zrotation Xrotation Yrotation
        JOINT LeftArm
        {
          OFFSET 10.2827 -0.00338 0.322123
          CHANNELS 3 Zrotation Xrotation Yrotation
          JOINT LeftForeArm
          {
            OFFSET 32.7669 0.099144 -1.42434
            CHANNELS 3 Zrotation Xrotation Yrotation
            JOINT LeftHand
            {
              OFFSET 27.5643 0.085362 1.02216
              CHANNELS 3 Zrotation Xrotation Yrotation
              End Site
              {
                OFFSET 16.7443 -0.6 1.50291
              }
            }
          }
        }
      }
      JOINT RightShoulder
      {
        OFFSET -8.99 -0.362252 -0.22
        CHANNELS 3 Zrotation Xrotation Yrotation
        JOINT RightArm
        {
          OFFSET -10.2827 -0.00338 0.322123
          CHANNELS 3 Zrotation Xrotation Yrotation
          JOINT RightForeArm
          {
            OFFSET -32.8971 0.099144 -1.42434
            CHANNELS 3 Zrotation Xrotation Yrotation
            JOINT RightHand
            {
              OFFSET -27.4921 0.085362 1.02216
              CHANNELS 3 Zrotation Xrotation Yrotation
              End Site
              {
                OFFSET -16.6312 -0.6 1.50291
              }
            }
          }
        }
      }
    }
  }
  JOINT LeftUpLeg
  {
    OFFSET 8.9458 -8.66707 0.101652
    CHANNELS 3 Zrotation Xrotation Yrotation
    JOINT LeftLeg
    {
      OFFSET 0 -44.4227 1.3727
      CHANNELS 3 Zrotation Xrotation Yrotation
      JOINT LeftFoot
      {
        OFFSET -0.253549 -42.0924 -1.46059
        CHANNELS 3 Zrotation Xrotation Yrotation
        JOINT LeftToes
        {
          OFFSET -0.04 -4.41509 8.4991
          CHANNELS 3 Zrotation Xrotation Yrotation
          End Site
          {
            OFFSET 0.08 -0.047448 9.77979
          }
        }
      }
    }
  }
}
MOTION
Frames:	15
Frame Time:	0.0166667
26.8085 102.436 91.7139 4.07741 -0.8943 7.23979 -4.40491 -17.0476 -3.82201 0.163975 57.4535 -3.09028 4.14175 -4.32139 -0.126198 -2.0162 7.4642 16.2058 -0.517817 3.9483 -0.28602 0.818957 25.6913 -0.810595 -8.26624 -7.6319 -4.46783 -3.97569e-016 3.18055e-015 1.59028e-015 -100.888 -26.5497 -24.4092 -14.7486 14.9837 -20.1755 0.368473 9.90896 -0.00117926 -9.88978 0.00430171 -5.47932 102.084 -26.0279 24.588 15.9257 17.8819 37.8068 -0.369625 9.91382 0.00119886 -6.877 -23.6776 0.816214 -4.34492 33.4308 13.5741 -3.90937 0.378234 0.195669 -1.47484 14.3874 1.75266 
27.0347 102.283 92.456 4.59373 -0.738946 7.26258 -5.1921 -19.34 -4.2018 -1.03083 60.4317 -2.24676 4.39756 -1.91596 -0.20691 -2.67811 11.1693 16.2911 -1.36472 4.01634 -0.216124 0.750491 25.7398 -0.841107 -8.40302 -7.73394 -4.6517 7.95139e-016 -6.36111e-015 7.95139e-016 -100.971 -25.575 -25.1395 -14.749 14.9679 -20.0164 0.368473 9.90896 -0.00117926 -9.75472 0.00179919 -5.64492 101.646 -26.4406 23.7171 16.033 17.9772 38.3491 -0.369625 9.91382 0.00119886 -7.51141 -23.6493 0.414321 -5.0592 34.157 13.476 -3.08938 -0.803889 0.132987 -4.69028 15.6156 7.05282 
27.2302 102.036 93.2199 4.98026 -0.719641 7.25024 -5.73323 -21.325 -4.48331 -2.21884 62.9904 -1.7592 4.39295 -1.18205 -0.229158 -2.02778 9.73592 13.6947 -2.02349 4.03126 -0.167552 0.719415 26.0958 -0.884865 -8.5697 -8.02812 -4.75892 -3.97569e-016 3.18055e-015 7.95139e-016 -100.938 -24.4619 -25.956 -14.7938 14.9789 -20.0442 0.368473 9.90896 -0.00117926 -9.58747 -0.00142038 -5.84197 101.342 -26.5528 23.1774 16.1437 18.0417 38.6255 -0.369625 9.91382 0.00119886 -7.92433 -23.5025 0.460698 -5.06625 35.0076 13.834 -3.73302 -1.45328 0.124334 -2.95422 13.8637 4.35768 
27.406 101.81 93.9929 5.25762 -0.722158 7.22378 -6.14815 -23.1258 -4.60891 -3.03524 64.8741 -1.89558 4.16679 -1.27299 -0.225316 -1.23111 6.67662 10.2518 -2.54357 4.01933 -0.131775 0.737711 26.5037 -0.934863 -8.71622 -8.42929 -4.83567 7.95139e-016 3.18055e-015 1.59028e-015 -100.833 -23.2949 -26.7928 -14.8756 15.0112 -20.2029 0.368473 9.90896 -0.00117926 -9.38883 -0.00601587 -6.06058 101.132 -26.5707 22.7786 16.242 18.0786 38.7192 -0.369625 9.91382 0.00119886 -8.19155 -23.304 0.772586 -4.86139 35.8115 14.0528 -4.577 -2.02878 0.123465 -0.786916 11.82 0.590282 
27.5816 101.74 94.785 5.38864 -0.673333 7.20206 -6.51077 -24.7427 -4.42868 -2.70874 65.672 -3.54467 3.64001 -1.65868 -0.208625 -0.74122 4.75986 7.438 -2.87696 3.99311 -0.110523 0.840346 26.7639 -0.986151 -8.77778 -8.91781 -4.91344 3.97569e-016 0 -1.59028e-015 -100.711 -22.1554 -27.5849 -15.0045 15.0698 -20.502 0.368473 9.90896 -0.00117926 -9.11543 -0.0135793 -6.31187 101.02 -26.6342 22.4032 16.3067 18.0734 38.6134 -0.369625 9.91382 0.00119886 -8.31561 -23.0271 1.45041 -4.66409 36.3609 13.3815 -4.52764 -2.94424 0.0899018 -1.07477 12.2233 1.06675 
27.7281 101.738 95.5651 5.42917 -0.594808 7.18006 -6.78056 -26.1979 -4.15749 -1.98675 65.613 -5.54751 3.11319 -2.49438 -0.181258 -0.39061 3.16815 4.81814 -3.12116 3.9562 -0.0965694 0.994858 26.9404 -1.03975 -8.82697 -9.36451 -4.98854 -3.97569e-016 0 -7.95139e-016 -100.536 -21.0224 -28.3702 -15.1431 15.1363 -20.8537 0.368473 9.90896 -0.00117926 -8.86655 -0.0210631 -6.55116 101.043 -26.8156 22.0825 16.3168 18.0447 38.4127 -0.369625 9.91382 0.00119886 -8.34775 -22.7166 2.04554 -4.51104 36.7253 12.6792 -4.32723 -3.78497 0.0545255 -1.81436 12.8092 2.34715 
27.8104 101.753 96.2952 5.4331 -0.475568 7.15786 -6.96901 -27.5362 -4.03865 -1.72479 64.8732 -6.66906 3.00372 -3.9758 -0.144312 -0.183913 2.11107 2.66629 -3.40128 3.91842 -0.0759266 1.19813 27.008 -1.09962 -8.94841 -9.58345 -5.07508 7.95139e-016 9.54166e-015 7.95139e-016 -100.284 -19.9002 -29.1586 -15.2391 15.189 -21.1496 0.368473 9.90896 -0.00117926 -8.77485 -0.024658 -6.72624 101.305 -27.3031 21.8263 16.217 18.0024 38.2174 -0.369625 9.91382 0.00119886 -8.32887 -22.4288 1.96194 -4.64855 36.9062 12.7974 -4.45526 -4.22681 0.0375987 -1.99624 11.8957 2.73473 
27.8658 101.802 97.0062 5.36913 -0.340423 7.13899 -7.09457 -28.6871 -3.8784 -1.38986 63.3407 -7.53023 2.88388 -5.45149 -0.114238 0.00737511 1.24469 0.361435 -3.58658 3.87365 -0.0706016 1.39686 27.0353 -1.15192 -9.03866 -9.72547 -5.14932 -3.97569e-016 -6.36111e-015 -1.59028e-015 -99.9733 -18.7938 -29.9658 -15.3509 15.2452 -21.4596 0.368473 9.90896 -0.00117926 -8.69653 -0.0282714 -6.87089 101.595 -27.8919 21.5805 16.0888 17.9572 38.0239 -0.369625 9.91382 0.00119886 -8.24701 -22.12 1.76023 -4.77321 36.9237 13.0795 -4.60018 -4.41197 0.0307348 -1.70028 10.4196 2.36508 
27.927 101.89 97.7228 5.20061 -0.209965 7.1173 -7.13973 -29.5819 -3.50339 -0.67846 60.8626 -8.12559 2.30579 -6.31419 -0.113962 0.245474 0.303186 -3.47169 -3.5396 3.81629 -0.106607 1.52254 27.0863 -1.17918 -8.98586 -9.88445 -5.18455 3.97569e-016 9.54166e-015 7.95139e-016 -99.5977 -17.6992 -30.8199 -15.5573 15.3191 -21.8281 0.368473 9.90896 -0.00117926 -8.50222 -0.0353427 -7.00056 101.713 -28.4633 21.2897 15.9933 17.9249 37.8675 -0.369625 9.91382 0.00119886 -8.09874 -21.7606 1.93961 -4.53638 36.7695 13.0588 -4.55786 -4.25708 0.0370792 -0.427004 8.21713 0.271756 
27.9727 102.008 98.4254 4.9972 -0.08588 7.12178 -7.1841 -30.2587 -3.07712 0.298409 57.7001 -9.19146 1.73654 -6.62696 -0.125413 0.334991 -0.776224 -6.26474 -3.40587 3.75451 -0.157918 1.61853 27.1507 -1.19683 -8.90108 -10.0453 -5.20461 3.97569e-016 -3.18055e-015 7.95139e-016 -99.1996 -16.6476 -31.6906 -15.7435 15.3961 -22.2238 0.368473 9.90896 -0.00117926 -8.28139 -0.0434479 -7.1181 101.742 -28.9419 20.9637 15.9369 17.9022 37.7322 -0.369625 9.91382 0.00119886 -7.93591 -21.3632 2.07433 -4.28436 36.532 12.9975 -4.48757 -4.11473 0.0422301 0.709895 6.8649 -1.87369 
27.989 102.149 99.095 4.83417 0.0140263 7.19475 -7.35361 -30.7284 -2.77495 1.23145 54.0076 -11.6361 1.62248 -6.05159 -0.137883 0.233568 -2.61393 -4.76493 -3.31852 3.6928 -0.208912 1.69831 27.2552 -1.21597 -8.86973 -10.221 -5.21404 8.82781e-032 3.18055e-015 -1.59028e-015 -98.8299 -15.6581 -32.5684 -15.7795 15.4609 -22.6119 0.368473 9.90896 -0.00117926 -8.07144 -0.0515464 -7.22326 101.688 -29.1528 20.6128 15.9573 17.8883 37.588 -0.369625 9.91382 0.00119886 -7.8233 -20.9262 1.76353 -4.35426 36.3315 13.0523 -4.50103 -4.46862 0.0264483 1.00044 9.23651 -2.53975 
27.9861 102.313 99.7542 4.6572 0.117403 7.29005 -7.52861 -31.0071 -2.40817 1.88113 49.8656 -14.0106 1.5837 -5.18473 -0.151864 0.247846 -3.86143 -2.39529 -3.17687 3.63665 -0.254414 1.78318 27.3531 -1.23233 -8.85782 -10.4213 -5.24436 3.97569e-016 1.27222e-014 -7.95139e-016 -98.4717 -14.7568 -33.4181 -15.7923 15.5316 -23.0458 0.368473 9.90896 -0.00117926 -7.89921 -0.0589315 -7.34083 101.586 -29.2697 20.1812 16.0211 17.8917 37.512 -0.369625 9.91382 0.00119886 -7.68486 -20.4621 1.44422 -4.42194 36.0639 13.0701 -4.53695 -4.84209 0.00887917 0.909 11.3659 -2.44793 
27.9686 102.502 100.421 4.41536 0.265247 7.36294 -7.60444 -31.1288 -1.76533 2.76621 45.3976 -15.9491 1.31408 -4.59526 -0.164837 0.217548 -2.96489 -2.33959 -2.89345 3.5939 -0.279829 1.92252 27.3869 -1.24694 -8.8737 -10.7048 -5.33675 7.95139e-016 3.18055e-015 -0 -98.1354 -13.9874 -34.1977 -15.9002 15.6284 -23.6006 0.368473 9.90896 -0.00117926 -7.84852 -0.0632497 -7.51382 101.487 -29.3979 19.5903 16.1138 17.9242 37.5863 -0.369625 9.91382 0.00119886 -7.4566 -20.0029 1.53561 -4.18582 35.6384 12.8934 -4.57153 -4.81005 0.00635347 0.444896 8.93546 -1.52969 
27.9384 102.703 101.09 4.17445 0.399786 7.45167 -7.65044 -31.0432 -1.08527 3.21194 40.8345 -16.7301 1.0365 -4.02833 -0.17524 0.188106 -1.0875 -2.08847 -2.56144 3.56207 -0.29781 2.04527 27.415 -1.25489 -8.87826 -10.9387 -5.46729 8.82781e-032 -3.18055e-015 1.59028e-015 -97.8062 -13.3075 -34.9166 -15.9956 15.7263 -24.1779 0.368473 9.90896 -0.00117926 -7.78587 -0.0683987 -7.68737 101.327 -29.5666 18.9147 16.2167 17.9744 37.7663 -0.369625 9.91382 0.00119886 -7.21272 -19.4944 1.67403 -3.92786 35.1341 12.7006 -4.60204 -4.7015 0.00620933 0.0584891 5.84564 -0.561475 
27.9031 102.908 101.757 4.00225 0.471591 7.58586 -7.74791 -30.6829 -0.659456 3.063 36.3087 -15.2984 0.870079 -3.41102 -0.179343 0.03727 1.28806 0.626194 -2.24099 3.54226 -0.325941 2.04288 27.4885 -1.24155 -8.79461 -10.9696 -5.63261 3.97569e-016 6.36111e-015 7.95139e-016 -97.4261 -12.6904 -35.5653 -15.9915 15.8074 -24.7103 0.368473 9.90896 -0.00117926 -7.56081 -0.0788625 -7.80625 101.033 -29.8539 18.1975 16.3058 18.0381 38.0558 -0.369625 9.91382 0.00119886 -7.00681 -18.8664 1.58943 -3.87785 34.5637 12.6573 -4.6147 -4.73577 8.819e-006 0.0751554 5.20158 -0.534591 
